PathFileType	4	(X/Y/Z)	C:\Users\dbl\Desktop\LZH\BX\Trimmed_bx_n_0_1801.trc
DataRate	CameraRate	NumFrames	NumMarkers	Units	OrigDataRate	OrigDataStartFrame	OrigNumFrames
50.00	50.00	       8	43	mm	50.00	499	       997
Frame#	Time	Top.Head			R.Acromium			L.Acromium			Sternum			R.ASIS			L.ASIS			V.Sacral			R.Thigh.Upper			R.Thigh.Front			R.Thigh.Rear			R.Knee.Lat			R.Knee.Med			R.Shank.Upper			R.Shank.Front			R.Shank.Rear			R.Ankle.Lat			R.Midfoot.Lat			R.Toe.Lat			R.Toe.Tip			R.Toe.Med			R.Ankle.Med			R.Midfoot.Sup			R.Heel			L.Thigh.Upper			L.Thigh.Front			L.Thigh.Rear			L.Knee.Lat			L.Knee.Med			L.Shank.Upper			L.Shank.Front			L.Shank.Rear			L.Ankle.Lat			L.Midfoot.Lat			L.Toe.Lat			L.Toe.Tip			L.Toe.Med			L.Ankle.Med			L.Midfoot.Sup			L.Heel			origin1 front left			origin2 front right			origin 3 back right			origin 4 back leftt			
		X1	Y1	Z1	X2	Y2	Z2	X3	Y3	Z3	X4	Y4	Z4	X5	Y5	Z5	X6	Y6	Z6	X7	Y7	Z7	X8	Y8	Z8	X9	Y9	Z9	X10	Y10	Z10	X11	Y11	Z11	X12	Y12	Z12	X13	Y13	Z13	X14	Y14	Z14	X15	Y15	Z15	X16	Y16	Z16	X17	Y17	Z17	X18	Y18	Z18	X19	Y19	Z19	X20	Y20	Z20	X21	Y21	Z21	X22	Y22	Z22	X23	Y23	Z23	X24	Y24	Z24	X25	Y25	Z25	X26	Y26	Z26	X27	Y27	Z27	X28	Y28	Z28	X29	Y29	Z29	X30	Y30	Z30	X31	Y31	Z31	X32	Y32	Z32	X33	Y33	Z33	X34	Y34	Z34	X35	Y35	Z35	X36	Y36	Z36	X37	Y37	Z37	X38	Y38	Z38	X39	Y39	Z39	X40	Y40	Z40	X41	Y41	Z41	X42	Y42	Z42	X43	Y43	Z43	

499	9.960	-340.82458	275.47232	1296.26843	-438.81000	79.81521	1044.38208	-432.52209	431.52045	1023.94226	-500.44324	249.29553	836.72693	-780.73541	138.23801	616.76880	-759.75293	362.06406	604.48633	-951.09192	262.81125	762.13739	-734.43469	67.28671	637.40082	-665.95691	135.51807	706.42480	-619.82941	62.86473	607.84863	-521.56860	80.19077	534.77277	-482.43143	190.06117	524.54065	-536.84210	82.08379	487.91827	-462.28271	134.57639	471.11639	-564.22827	81.22751	446.87012	-678.85175	145.36696	213.88602	-619.74591	83.66563	170.77393	-575.46234	61.95279	166.86885	-502.99515	91.91026	161.25171	-539.95300	145.95392	160.07210	-630.68512	220.33536	205.65033	-599.84296	191.68649	161.73024	-726.13733	213.71674	171.49658	-732.15741	454.70380	643.03015	-649.24567	398.60336	708.99524	-625.74744	454.13614	598.61023	-497.93423	439.14789	542.74304	-473.97482	324.24771	519.83301	-497.99390	438.48212	507.86316	-433.26428	381.56171	497.25684	-570.03241	432.19357	468.01114	-664.22974	399.32584	212.82471	-587.06659	456.94144	166.55916	-552.36957	470.19553	162.63522	-489.57407	429.95303	167.54460	-523.88422	384.07541	175.35683	-627.88605	311.82413	197.60277	-589.23346	336.66687	163.36224	-728.63599	326.14642	164.20705	-443.83609	448.56857	146.78313	-450.24963	75.12280	143.03915	-806.56085	82.33784	141.41422	-799.70563	456.91190	145.20256	
500	9.980	-341.26135	275.92740	1296.48376	-438.99045	80.21510	1044.52271	-432.77664	431.80920	1023.94122	-500.68213	249.54041	836.64526	-781.22351	138.77046	615.73755	-760.38666	362.29965	603.70190	-951.24731	262.90601	762.24109	-734.38220	67.56985	637.38062	-666.02209	135.91722	706.41162	-619.79010	63.34114	607.86652	-521.45428	80.74277	534.92267	-482.55252	190.75504	524.60803	-536.87207	82.53952	488.19885	-462.17523	135.12372	471.24643	-564.22345	81.60092	446.96326	-678.92163	145.29166	214.03346	-619.75122	83.70752	170.82718	-575.44769	61.97682	166.90475	-503.08011	91.91432	161.25946	-539.90820	146.00697	160.04506	-630.76465	220.40729	205.57220	-599.80847	191.72676	161.73343	-726.14050	213.70926	171.48795	-732.42847	454.96591	643.16528	-649.51990	398.99863	709.11877	-626.04498	454.43198	598.78296	-498.14813	439.40488	542.92841	-473.96384	323.91104	519.90375	-498.23358	438.89740	508.08676	-433.48129	381.75934	497.25992	-570.09283	432.35782	468.00003	-664.22632	399.36035	212.84131	-587.09381	456.99390	166.52921	-552.37561	470.18921	162.61380	-489.58237	430.04315	167.57661	-523.91608	384.11191	175.36780	-627.90735	311.82791	197.63800	-589.25122	336.70825	163.37090	-728.61798	326.14841	164.14729	-443.78851	448.61157	146.79539	-450.27463	75.09661	143.05994	-806.56012	82.30083	141.42519	-799.71783	456.91232	145.21730	
501	10.000	-341.70593	276.35687	1296.77808	-439.17688	80.59068	1044.64661	-433.08057	432.09769	1023.97302	-500.85959	249.74251	836.74579	-781.68085	139.30334	614.83832	-760.99182	362.52667	603.05603	-951.39801	263.01248	762.35693	-734.33484	67.95270	637.34613	-666.02405	136.37248	706.37231	-619.71783	63.88450	607.85999	-521.41315	81.31421	535.08044	-482.64297	191.48198	524.71307	-536.87891	83.04681	488.48984	-462.01678	135.69173	471.33182	-564.18866	82.02766	447.06653	-678.98480	145.14754	214.29433	-619.74438	83.76207	170.89803	-575.38306	62.03469	166.96574	-503.14999	91.92529	161.24937	-539.87140	146.04599	160.01816	-630.88513	220.52390	205.44876	-599.71405	191.76062	161.80450	-726.15552	213.69740	171.45952	-732.63879	455.20544	643.22485	-649.87048	399.30441	709.14685	-626.26074	454.75043	598.99561	-498.31134	439.53244	543.07758	-473.94824	323.56973	519.98590	-498.40247	439.22263	508.23740	-433.65652	381.77643	497.17392	-570.14124	432.42963	467.95126	-664.22821	399.39774	212.86244	-587.08966	457.00061	166.51683	-552.38220	470.20010	162.59074	-489.56506	430.10660	167.59250	-523.91406	384.12738	175.37202	-627.91888	311.84229	197.66177	-589.29626	336.81787	163.37169	-728.59680	326.13068	164.07440	-443.73734	448.64426	146.80833	-450.29672	75.09985	143.04343	-806.54736	82.25224	141.44241	-799.73163	456.91754	145.22227	
502	10.020	-342.18182	276.74405	1297.12512	-439.36264	80.92672	1044.76147	-433.40744	432.34625	1024.05249	-500.93942	249.95064	837.05676	-782.10730	139.83574	614.07043	-761.56799	362.74490	602.54785	-951.50525	263.11926	762.43152	-734.30884	68.35942	637.31238	-665.99933	136.81393	706.32391	-619.64569	64.42002	607.84509	-521.40381	81.83501	535.18329	-482.67581	192.11212	524.85919	-536.80908	83.53949	488.70020	-461.88519	136.23460	471.38077	-564.14526	82.46458	447.16898	-678.98566	145.04903	214.55794	-619.71295	83.83090	170.98251	-575.25977	62.11841	167.05206	-503.19730	91.94308	161.23286	-539.85632	146.07104	159.99892	-630.99683	220.65704	205.25961	-599.58728	191.78825	161.91676	-726.17188	213.68843	171.42705	-732.79492	455.42303	643.18994	-650.16827	399.52847	709.08765	-626.39563	455.03995	599.15393	-498.43478	439.61047	543.15460	-473.92831	323.22507	520.07904	-498.48132	439.41287	508.29868	-433.77841	381.73541	497.08585	-570.19653	432.46490	467.86911	-664.23120	399.41608	212.87469	-587.07501	456.98978	166.51022	-552.38416	470.23141	162.57712	-489.54373	430.11945	167.59189	-523.89093	384.13065	175.37036	-627.90271	311.85373	197.68365	-589.33881	336.92361	163.37814	-728.58344	326.11072	164.02715	-443.71030	448.64612	146.80840	-450.29697	75.12319	143.00220	-806.52039	82.20824	141.44768	-799.74475	456.92239	145.21239	
503	10.040	-342.71329	277.09866	1297.51550	-439.53735	81.22581	1044.88782	-433.78247	432.57932	1024.20239	-500.93781	250.16995	837.45776	-782.50287	140.36667	613.43359	-762.11487	362.95413	602.17627	-951.54382	263.23209	762.44128	-734.31122	68.70830	637.29205	-665.98914	137.19341	706.29773	-619.59528	64.88332	607.85071	-521.38342	82.26635	535.20435	-482.68085	192.57352	524.98657	-536.66370	83.94479	488.85126	-461.82971	136.71431	471.40390	-564.10748	82.88690	447.24197	-678.89954	145.12280	214.67480	-619.65771	83.90855	171.06744	-575.12402	62.20160	167.14000	-503.22821	91.96074	161.21471	-539.85083	146.08574	159.99289	-631.04572	220.78389	205.02226	-599.46771	191.81044	162.01143	-726.18024	213.68874	171.39911	-732.90851	455.60727	643.08606	-650.29034	399.69907	708.99982	-626.47394	455.26697	599.20764	-498.50595	439.69397	543.16058	-473.90436	322.87823	520.18268	-498.49628	439.49457	508.29669	-433.85428	381.70822	497.03687	-570.25354	432.50348	467.77118	-664.22656	399.41223	212.87012	-587.06366	456.98618	166.49751	-552.37726	470.26050	162.58105	-489.53711	430.08063	167.58365	-523.86346	384.13440	175.36481	-627.86304	311.85352	197.70848	-589.35022	336.95166	163.38907	-728.58173	326.11447	164.03357	-443.71829	448.61246	146.79301	-450.28278	75.14490	142.97086	-806.49097	82.19252	141.42438	-799.75562	456.92471	145.18567	
504	10.060	-343.30331	277.41821	1297.95337	-439.70038	81.47646	1045.05896	-434.23889	432.87183	1024.45618	-500.92325	250.34843	837.77008	-782.86743	140.89523	612.92706	-762.63214	363.15411	601.94031	-951.52594	263.36166	762.40112	-734.32849	68.97752	637.30115	-665.99817	137.50351	706.31775	-619.57880	65.24985	607.90527	-521.35352	82.60040	535.18188	-482.70074	192.85736	525.03558	-536.50903	84.23882	488.99997	-461.83289	137.09512	471.40079	-564.07239	83.26910	447.27582	-678.77374	145.35358	214.62312	-619.59485	83.97767	171.13388	-575.04718	62.26058	167.19705	-503.24146	91.97070	161.19554	-539.83453	146.09137	159.99779	-631.01910	220.90198	204.79433	-599.38092	191.82245	162.04694	-726.17670	213.70198	171.37372	-732.98407	455.75449	642.96570	-650.21680	399.84601	708.95721	-626.51239	455.43408	599.17865	-498.50970	439.78580	543.13086	-473.87677	322.53043	520.29620	-498.48846	439.52094	508.26663	-433.89355	381.70670	497.02307	-570.28546	432.54013	467.67856	-664.21722	399.40970	212.85765	-587.05682	456.99179	166.47595	-552.36176	470.26654	162.59764	-489.55032	430.02588	167.57353	-523.84857	384.13980	175.35655	-627.83514	311.85754	197.72607	-589.33203	336.90237	163.39212	-728.58923	326.14642	164.08678	-443.75589	448.55829	146.78148	-450.28116	75.15290	142.97308	-806.48022	82.21896	141.37773	-799.76056	456.92752	145.14932	
505	10.080	-343.93121	277.66772	1298.42505	-439.86090	81.65915	1045.29102	-434.72974	433.24683	1024.81714	-500.92380	250.45871	837.92914	-783.20093	141.42047	612.55042	-763.11932	363.34467	601.83875	-951.48676	263.51456	762.36011	-734.34015	69.19464	637.34949	-665.99597	137.74821	706.38593	-619.60126	65.52591	608.01007	-521.33875	82.84612	535.18018	-482.73462	193.01004	525.03381	-536.40277	84.44570	489.13077	-461.85196	137.34608	471.38376	-564.03815	83.57091	447.28009	-678.68115	145.59499	214.51782	-619.54407	84.02155	171.17328	-575.04089	62.29149	167.22166	-503.23111	91.97341	161.17940	-539.80341	146.09262	160.00035	-630.94580	221.00073	204.63188	-599.33990	191.81453	162.02119	-726.16400	213.72475	171.35294	-733.03015	455.86276	642.87756	-650.03076	399.97650	708.99329	-626.51276	455.54767	599.13007	-498.46924	439.85117	543.10211	-473.84576	322.18286	520.41919	-498.48413	439.52612	508.24487	-433.90610	381.71655	497.03500	-570.27710	432.54852	467.60532	-664.21088	399.41922	212.84361	-587.05176	456.99136	166.45930	-552.34442	470.25641	162.60635	-489.57037	429.99777	167.56219	-523.85010	384.13745	175.34663	-627.84448	311.87875	197.72583	-589.30145	336.82419	163.38519	-728.60297	326.18115	164.15462	-443.79721	448.52142	146.78343	-450.30466	75.14672	143.01042	-806.50073	82.27108	141.35074	-799.75940	456.92914	145.11658	
506	10.100	-344.55682	277.83392	1298.90527	-440.01361	81.78917	1045.56360	-435.15457	433.61780	1025.22217	-500.90878	250.54735	838.01459	-783.50323	141.94144	612.30298	-763.57605	363.52551	601.87085	-951.46045	263.68451	762.38037	-734.33801	69.37849	637.43018	-665.96210	137.93425	706.47968	-619.65063	65.72305	608.12799	-521.35919	83.01717	535.23669	-482.76144	193.10434	525.05322	-536.35663	84.59523	489.19943	-461.87158	137.47911	471.38028	-564.01636	83.77077	447.27133	-678.65118	145.72882	214.45488	-619.51416	84.04254	171.19124	-575.04187	62.30425	167.24887	-503.20575	91.97598	161.17276	-539.77130	146.09415	159.99049	-630.86725	221.06119	204.55141	-599.33661	191.79192	161.96819	-726.15326	213.74472	171.34770	-733.04913	455.92349	642.85760	-649.84497	400.06885	709.08331	-626.47772	455.59436	599.14099	-498.44229	439.83966	543.09625	-473.81177	321.83673	520.55109	-498.48743	439.51324	508.25891	-433.90704	381.70694	497.08258	-570.25342	432.52036	467.56882	-664.20593	399.41827	212.82129	-587.04987	456.97534	166.46629	-552.33228	470.24652	162.59467	-489.57904	430.01187	167.56108	-523.85406	384.12076	175.33536	-627.87280	311.89954	197.71249	-589.27350	336.76483	163.37643	-728.62036	326.18875	164.20674	-443.81186	448.53076	146.77637	-450.33911	75.12719	143.06053	-806.54437	82.31026	141.38519	-799.75555	456.92380	145.10010	
